# xmcd
# Copyright (C) 1995-1998 Ti Kan
#
# Track frame offsets:
#       150
#       9898
#       22965
#       35962
#       47374
#       73973
#       86112
#       103337
#       116976
#       131628
#       142906
#       159540
#       170290
#
# Disc length: 2462 seconds
#
# Revision: 0
# Processed by: cddbd v1.5.2PL0 Copyright (c) Steve Scherf et al.
# Submitted via: CD-Import v1.0
#
DISCID=b1099c0d
DTITLE=My Name Is George - The Bad Old Days Are Over
DYEAR=10
DGENRE=
TTITLE0=You Are Under Arrest
TTITLE1=These Are Terrible Times To Be Young
TTITLE2=Why Don't You Leave Me Alolne
TTITLE3=I Wanna Be The Only One
TTITLE4=The Bad Old Days Are Over
TTITLE5=Single
TTITLE6=Days Withourt You
TTITLE7=Catch A Plane!
TTITLE8=The Birdwatcher
TTITLE9=Second-Hand Man
TTITLE10=The Angry Man In The Spotlight
TTITLE11=Isabelle Is A Belle
TTITLE12=You're A Survivor
EXTD=
EXTT0=
EXTT1=
EXTT2=
EXTT3=
EXTT4=
EXTT5=
EXTT6=
EXTT7=
EXTT8=
EXTT9=
EXTT10=
EXTT11=
EXTT12=
PLAYORDER=
